<mxfile host="app.diagrams.net" modified="2023-10-12T22:43:13.297Z" agent="Mozilla/5.0 (Windows NT 10.0; Win64; x64) AppleWebKit/537.36 (KHTML, like Gecko) Chrome/118.0.0.0 Safari/537.36" version="21.7.1" etag="_URAVcZT84uluSjpbVnV" type="github">
  <diagram name="Page-1" id="JD1tYXUPBfM9Y4F_Q8fU">
    <mxGraphModel>
      <root>
        <mxCell id="0" />
        <mxCell id="1" parent="0" />
      </root>
    </mxGraphModel>
  </diagram>
</mxfile>
